<svg viewBox="0 0 256 292" fill="none" xmlns="http://www.w3.org/2000/svg"><path fill-rule="evenodd" clip-rule="evenodd" d="M160.366.858a18.222 18.222 0 0 1 11.621 9.462c8.811 17.623 15.388 28.319 22.004 36.991 6.697 8.778 13.781 15.964 24.558 26.74 24.903 24.904 37.36 57.58 37.359 90.195 0 32.616-12.456 65.292-37.359 90.195-49.814 49.813-130.577 49.813-180.39 0C13.256 229.538.8 196.862.8 164.246c0-32.615 12.457-65.291 37.36-90.194a18.222 18.222 0 0 1 31.107 12.884c0 20.406 1.274 35.954 7.243 48.356 3.281 6.819 8.4 13.486 17.224 19.435 2.107-19.329 5.967-42.879 11.183-65.232 4.106-17.6 9.214-35.17 15.293-49.822 3.04-7.328 6.479-14.306 10.384-20.33 3.801-5.865 8.684-11.833 14.988-16.035a18.222 18.222 0 0 1 14.785-2.45Zm6.643 238.487c-21.349 21.348-55.961 21.348-77.31 0-10.674-10.674-16.011-24.665-16.011-38.655 0 0 16.011 9.111 45.556 9.111 0-18.222 9.111-72.888 22.777-81.999 9.111 18.222 14.314 23.559 24.988 34.233 10.674 10.674 16.011 24.665 16.011 38.655 0 13.99-5.337 27.981-16.011 38.655Z" fill="#fff"/></svg>