<svg viewBox="0 0 241 349" fill="none" xmlns="http://www.w3.org/2000/svg"><path fill-rule="evenodd" clip-rule="evenodd" d="M120.173 348.419s120.099-161.973 120.099-228.302c0-66.328-53.77-120.098-120.099-120.098C53.845.019.075 53.789.075 120.117c0 66.329 120.098 228.302 120.098 228.302Zm22.445-297.953a9.367 9.367 0 0 0-5.978-4.857 9.39 9.39 0 0 0-7.605 1.257c-3.243 2.157-5.755 5.22-7.71 8.23-2.009 3.093-3.777 6.674-5.341 10.435-3.127 7.52-5.755 16.539-7.867 25.572-2.683 11.473-4.668 23.56-5.752 33.481-4.539-3.053-7.172-6.475-8.86-9.976-3.07-6.365-3.726-14.345-3.726-24.818a9.352 9.352 0 0 0-5.786-8.641 9.388 9.388 0 0 0-10.215 2.027c-12.81 12.782-19.217 29.553-19.217 46.294 0 16.74 6.407 33.512 19.217 46.293 25.624 25.567 67.167 25.567 92.791 0 12.81-12.781 19.217-29.553 19.217-46.293 0-16.741-6.407-33.512-19.217-46.294-5.544-5.53-9.188-9.219-12.632-13.725-3.404-4.45-6.787-9.94-11.319-18.985Z" fill="#111827"/></svg>