<svg viewBox="0 0 254 61" xmlns="http://www.w3.org/2000/svg"><path d="m54.468 40.817-4.644-10.01 7.102-10.689L54.286 0 37.088 14.946a42.03 42.03 0 0 0-8.323-.747h-.584a42.36 42.36 0 0 0-8.332.747L2.645 0 0 20.118l7.103 10.689-4.643 10.01 1.62.233h.013l-.6 2.193 1.056.385c11.153 4.054 22.584 16.835 22.694 16.964l.362.408h1.703l.362-.408c.115-.13 11.546-12.916 22.699-16.964l1.055-.385-.594-2.193h.01l1.628-.233ZM41.337 44.2l5.763-1.398c-6.243 3.212-12.034 8.25-15.944 12.088h-5.382c-3.913-3.841-9.699-8.884-15.943-12.095l5.763 1.398-4.878-3.542a13.515 13.515 0 0 0-4.18-1.895l7.895-17.012-6.32 5.512-4.953-7.469.966-7.411 3.507 2.907 2.409-4.798-1.666-2.162 11.01 9.572.587-.132a38.133 38.133 0 0 1 8.192-.792h.619a39.246 39.246 0 0 1 8.173.794l.585.13 11.015-9.572-1.663 2.162 2.409 4.801 3.507-2.91.974 7.408-4.961 7.47-6.317-5.51 7.883 17.009a13.516 13.516 0 0 0-4.179 1.895L41.337 44.2Z" fill="#FCFCFC"/><path d="M35.425 37.692a29.088 29.088 0 0 1-.442 3.49l-.203 1.064 3.822-1.541.09-.24c.31-.802 2.052-3.763 3.038-5.392l1.183-1.934-7.466 4.23-.022.323Zm-13.918 0-.016-.325-7.464-4.226 1.178 1.943c.983 1.622 2.726 4.582 3.034 5.383l.091.241 3.822 1.538-.207-1.067a29.388 29.388 0 0 1-.438-3.487Zm49.396 8.187V26.53h15.423v4.707H76.242v3.28h9.117v4.452h-9.117v6.909h-5.339Zm17.185-9.669a9.749 9.749 0 0 1 .797-3.904 10 10 0 0 1 2.167-3.208 10.112 10.112 0 0 1 3.308-2.145 11.088 11.088 0 0 1 8.243-.007 10.057 10.057 0 0 1 3.283 2.132 9.787 9.787 0 0 1 2.144 3.201c.525 1.243.793 2.58.788 3.931a9.826 9.826 0 0 1-.799 3.911 9.953 9.953 0 0 1-2.167 3.209c-.95.924-2.07 1.653-3.299 2.145a10.722 10.722 0 0 1-4.117.793 10.593 10.593 0 0 1-5.299-1.34 9.768 9.768 0 0 1-3.715-3.64 9.918 9.918 0 0 1-1.334-5.078Zm5.472 0a5.29 5.29 0 0 0 1.393 3.689 4.578 4.578 0 0 0 3.537 1.54c1.445 0 2.623-.506 3.535-1.52.913-1.014 1.371-2.25 1.375-3.709a5.295 5.295 0 0 0-1.393-3.687c-.929-1.027-2.116-1.54-3.56-1.54-1.427 0-2.596.506-3.51 1.52-.913 1.014-1.37 2.25-1.374 3.707h-.003Zm16.66 9.669 6.603-9.837-6.334-9.511h6.145l3.417 5.45 3.441-5.45h5.998l-6.334 9.452 6.616 9.89h-6.146l-3.698-5.828-3.715 5.829-5.993.005Zm28.837-.005V26.528h7.43c1.558-.02 3.109.22 4.588.711a9.47 9.47 0 0 1 3.427 1.987 8.679 8.679 0 0 1 2.109 3.048 9.989 9.989 0 0 1 .739 3.894 9.875 9.875 0 0 1-.746 3.863 8.858 8.858 0 0 1-2.123 3.077 9.679 9.679 0 0 1-3.466 2.033 13.875 13.875 0 0 1-4.644.733h-7.314Zm5.338-4.708h2.179c1.621 0 2.911-.436 3.87-1.308.958-.871 1.438-2.095 1.439-3.67 0-1.534-.481-2.744-1.444-3.63-.963-.885-2.253-1.327-3.87-1.327h-2.174v9.935Zm15.825 4.708V26.528h5.337v19.346h-5.337Zm8.229-9.694a9.967 9.967 0 0 1 .786-3.938 9.73 9.73 0 0 1 2.158-3.19 10.055 10.055 0 0 1 3.3-2.12 10.918 10.918 0 0 1 4.135-.777c1.626 0 3.065.241 4.317.724a11.614 11.614 0 0 1 3.484 2.128l-3.128 3.765a8.17 8.17 0 0 0-2.167-1.35 6.555 6.555 0 0 0-2.477-.444 4.601 4.601 0 0 0-3.509 1.528c-.95 1.02-1.426 2.27-1.426 3.75 0 1.58.491 2.882 1.472 3.907.982 1.025 2.235 1.538 3.759 1.54 1.244 0 2.276-.28 3.096-.837v-2.425h-3.838v-3.873h8.874v8.739a12.81 12.81 0 0 1-8.347 2.958 11.197 11.197 0 0 1-5.365-1.278 9.432 9.432 0 0 1-3.759-3.59 10.067 10.067 0 0 1-1.365-5.218Zm21.929 9.694V26.528h5.337v19.346h-5.337Zm7.811-14.637v-4.71h16.914v4.71h-5.794v14.637h-5.339V31.237h-5.781Zm17.694 14.637 8.216-19.481h5.145l8.204 19.48h-5.727l-1.412-3.453h-7.43l-1.374 3.454h-5.622Zm8.563-7.621h4.334l-2.152-5.505-2.182 5.505Zm14.872 7.621V26.528h5.337v14.638H254v4.708h-14.682Z" fill="#FCFCFC"/></svg>