<svg width="1920" height="1000" fill="none" xmlns="http://www.w3.org/2000/svg"><g filter="url(#a)"><ellipse rx="1018.01" ry="551.046" transform="rotate(-2.353 22010.55 -13284.611) skewX(-.105)" fill="#0025CE"/></g><g opacity=".7" filter="url(#b)"><path d="M1303.44 703.601C441.441 856.271-3.772 96.515-294.791 188.967-660.621 305.185-419.694 1059.03-51.339 1281.76 382.849 1544.29 1887.6 600.139 1303.44 703.601Z" fill="#0094FF"/></g><g filter="url(#c)"><path d="M402.906 976.331C141.358 1037.33 50.115 1208.32 92.869 1400.23c89.213 400.45 2429.681 4.39 2704.911-411.097 202.26-305.35 92.33-643.257-205.85-702.806-336.97-67.295-517.83 5.448-794.12 185.203-230.53 149.982-293.05 255.2-551.59 396.637-241.98 132.383-610.992 53.982-843.314 108.164Z" fill="#1D79CE"/></g><g filter="url(#d)"><path d="M2294.02 1548.32C1255.3 1759.02 694.78 853.325 345.271 973.951-94.085 1125.59 219.066 2030.29 671.191 2288.63c532.929 304.51 2326.749-883.1 1622.829-740.31Z" fill="#137FCE"/></g><g filter="url(#e)"><ellipse rx="1233.57" ry="578.432" transform="matrix(.97908 -.20246 .19382 .98123 1790.45 1989.33)" fill="#0025CE"/></g><g filter="url(#f)"><path d="M1511.52 2049.12c-272.17 181.05-306.08 414.12-179.29 613.65 264.57 416.35 2761.09-1033.78 2904.27-1623 105.22-433.029-157.38-769.531-520.29-709.635-410.12 67.688-585.85 227.57-826.35 549.703-200.66 268.782-228.77 414.922-464.71 685.982-220.85 253.7-671.88 322.48-913.63 483.3Z" fill="#1C3CC9"/></g><defs><filter id="a" x="-853.448" y="-59.813" width="2834.78" height="1904.46" filterUnits="userSpaceOnUse" color-interpolation-filters="sRGB"><feFlood flood-opacity="0" result="BackgroundImageFix"/><feBlend in="SourceGraphic" in2="BackgroundImageFix" result="shape"/><feGaussianBlur stdDeviation="200" result="effect1_foregroundBlur_77_9"/></filter><filter id="b" x="-676.481" y="-18.863" width="2312.83" height="1546.92" filterUnits="userSpaceOnUse" color-interpolation-filters="sRGB"><feFlood flood-opacity="0" result="BackgroundImageFix"/><feBlend in="SourceGraphic" in2="BackgroundImageFix" result="shape"/><feGaussianBlur stdDeviation="100" result="effect1_foregroundBlur_77_9"/></filter><filter id="c" x="-117.219" y="61.594" width="3217.96" height="1705.04" filterUnits="userSpaceOnUse" color-interpolation-filters="sRGB"><feFlood flood-opacity="0" result="BackgroundImageFix"/><feBlend in="SourceGraphic" in2="BackgroundImageFix" result="shape"/><feGaussianBlur stdDeviation="100" result="effect1_foregroundBlur_77_9"/></filter><filter id="d" x="-66.02" y="762.837" width="2721.49" height="1775.94" filterUnits="userSpaceOnUse" color-interpolation-filters="sRGB"><feFlood flood-opacity="0" result="BackgroundImageFix"/><feBlend in="SourceGraphic" in2="BackgroundImageFix" result="shape"/><feGaussianBlur stdDeviation="100" result="effect1_foregroundBlur_77_9"/></filter><filter id="e" x="177.408" y="969.076" width="3226.09" height="2040.5" filterUnits="userSpaceOnUse" color-interpolation-filters="sRGB"><feFlood flood-opacity="0" result="BackgroundImageFix"/><feBlend in="SourceGraphic" in2="BackgroundImageFix" result="shape"/><feGaussianBlur stdDeviation="200" result="effect1_foregroundBlur_77_9"/></filter><filter id="f" x="1061.39" y="123.212" width="3398.53" height="2813.55" filterUnits="userSpaceOnUse" color-interpolation-filters="sRGB"><feFlood flood-opacity="0" result="BackgroundImageFix"/><feBlend in="SourceGraphic" in2="BackgroundImageFix" result="shape"/><feGaussianBlur stdDeviation="100" result="effect1_foregroundBlur_77_9"/></filter></defs></svg>