<svg viewBox="0 0 1920 256" xmlns="http://www.w3.org/2000/svg"><path d="m1915 207 5-.5v49H0V.5L1 15l1.5 12.5L4 37l2.5 12.5 3 11 6 17 6 14.5 7 13.5 4 6.5 3.5 6 6 9 4 5.5 4 5 5 6 11 12 16 15 12.5 10 7.5 5 19.5 11.5 19.5 9.5 16.5 6 10.5 3 13 3 11.5 2 8.5 1.5 11.5 1L356 233l235.5 13 128.5 5 131 2 155.5 2.5 244.5-5 14.5-.5 14-.5 26-1 21-1 37.5-1.5 33.5-1.5 26.5-1.5 30-1.5 52.5-3 40.5-2.5 29.5-2 28-2 21.5-1.5 28-2 28.5-2 17.5-1.5 32-2.5 18.5-1.5 20-1.5 17.5-1.5 13-1 11-1 6.5-.5 5.5-.5 6-.5 5-.5 13-1 17-1.5 15.5-1.5 12-1 11-1 11.5-1Z" fill="#fff"/></svg>