<svg width="1920" height="1142" fill="none" xmlns="http://www.w3.org/2000/svg"><g filter="url(#a)"><ellipse rx="1986.39" ry="1225.43" transform="matrix(-.98417 .17724 .17208 .98508 -288.684 1892.6)" fill="red" fill-opacity=".75"/></g><g filter="url(#b)"><ellipse rx="1654" ry="886.376" transform="matrix(-.9862 .16553 .16066 .98701 2203.45 1220.73)" fill="#FF4D00"/></g><g filter="url(#c)"><path d="M966.576 1169.77C2385.98 1122.52 2849.96-222.897 3342.3-174.407c618.89 60.957 477.78 1328.867-36.36 1802.677-606.02 558.49-3301.27-426.49-2339.364-458.5Z" fill="#FFA800"/></g><g filter="url(#d)"><path d="M2485.48 1299.62c435.57 8.79 635.58 247.57 629.2 564.01-13.32 660.29-3862.857 817.52-4433.99 255.14-419.72-413.3-353.37-982.03 101.75-1175.267 514.322-218.38 825.322-164.182 1322.459 26.669C519.7 1129.41 652.919 1274.22 1109.51 1410.67c427.37 127.71 989.08-118.85 1375.97-111.05Z" fill="#FF4D00" fill-opacity=".5"/></g><g filter="url(#e)"><ellipse rx="749.452" ry="681.911" transform="scale(-1 1) rotate(-1.155 10057.466 147183.624)" fill="#FF4D00" fill-opacity=".5"/></g><g filter="url(#f)"><ellipse rx="710.33" ry="596.529" transform="matrix(-.9339 -.35752 -.34943 .93696 326.616 1937.89)" fill="#FFA18A"/></g><defs><filter id="a" x="-2555.13" y="334.831" width="4532.9" height="3115.54" filterUnits="userSpaceOnUse" color-interpolation-filters="sRGB"><feFlood flood-opacity="0" result="BackgroundImageFix"/><feBlend in="SourceGraphic" in2="BackgroundImageFix" result="shape"/><feGaussianBlur stdDeviation="150" result="effect1_foregroundBlur_32_578"/></filter><filter id="b" x="165.965" y="-96.218" width="4074.96" height="2633.89" filterUnits="userSpaceOnUse" color-interpolation-filters="sRGB"><feFlood flood-opacity="0" result="BackgroundImageFix"/><feBlend in="SourceGraphic" in2="BackgroundImageFix" result="shape"/><feGaussianBlur stdDeviation="200" result="effect1_foregroundBlur_32_578"/></filter><filter id="c" x="561.173" y="-375.687" width="3390.42" height="2375.03" filterUnits="userSpaceOnUse" color-interpolation-filters="sRGB"><feFlood flood-opacity="0" result="BackgroundImageFix"/><feBlend in="SourceGraphic" in2="BackgroundImageFix" result="shape"/><feGaussianBlur stdDeviation="100" result="effect1_foregroundBlur_32_578"/></filter><filter id="d" x="-1799.52" y="601.894" width="5114.34" height="2060.72" filterUnits="userSpaceOnUse" color-interpolation-filters="sRGB"><feFlood flood-opacity="0" result="BackgroundImageFix"/><feBlend in="SourceGraphic" in2="BackgroundImageFix" result="shape"/><feGaussianBlur stdDeviation="100" result="effect1_foregroundBlur_32_578"/></filter><filter id="e" x="1916.13" y="-749.238" width="2098.86" height="1963.89" filterUnits="userSpaceOnUse" color-interpolation-filters="sRGB"><feFlood flood-opacity="0" result="BackgroundImageFix"/><feBlend in="SourceGraphic" in2="BackgroundImageFix" result="shape"/><feGaussianBlur stdDeviation="150" result="effect1_foregroundBlur_32_578"/></filter><filter id="f" x="-768.928" y="923.828" width="2191.09" height="2028.13" filterUnits="userSpaceOnUse" color-interpolation-filters="sRGB"><feFlood flood-opacity="0" result="BackgroundImageFix"/><feBlend in="SourceGraphic" in2="BackgroundImageFix" result="shape"/><feGaussianBlur stdDeviation="200" result="effect1_foregroundBlur_32_578"/></filter></defs></svg>