<svg width="1920" height="1260" fill="none" xmlns="http://www.w3.org/2000/svg"><g filter="url(#a)"><ellipse rx="1541.34" ry="950.875" transform="matrix(.99996 .0091 .01434 -.9999 1418.97 -288.233)" fill="red" fill-opacity=".75"/></g><g filter="url(#b)"><ellipse rx="1283.42" ry="687.785" transform="matrix(.99978 .021 .02592 -.99966 -578.053 -136.063)" fill="#FF4D00"/></g><g filter="url(#c)"><path d="M357.553 81.488C-731.399-87.562-1279.52 871.125-1647.86 763.026c-463.03-135.888-172.26-1082.132 288.16-1369.077 542.714-338.23 2455.22 802.102 1717.253 687.539Z" fill="#FFA800"/></g><g filter="url(#d)"><path d="M-781.676-236.96c-330.794-69.625-448.784-280.57-398.204-520.894 105.55-501.466 3063.09-65.17 3417.26 446.095 260.28 375.735 127.52 799.732-247.37 881.302-423.66 92.182-652.93 5.93-1004.366-211.397-293.23-181.332-373.873-310.98-702.257-480.969C-23.979-281.932-487.845-175.115-781.676-236.96Z" fill="#FF4D00" fill-opacity=".5"/></g><g filter="url(#e)"><ellipse rx="551.182" ry="462.877" transform="matrix(.851 .52515 .51777 -.85552 956.424 -411.661)" fill="#FFA18A"/></g><defs><filter id="a" x="-422.366" y="-1539.12" width="3682.68" height="2501.77" filterUnits="userSpaceOnUse" color-interpolation-filters="sRGB"><feFlood flood-opacity="0" result="BackgroundImageFix"/><feBlend in="SourceGraphic" in2="BackgroundImageFix" result="shape"/><feGaussianBlur stdDeviation="150" result="effect1_foregroundBlur_31_250"/></filter><filter id="b" x="-2261.32" y="-1224.15" width="3366.53" height="2176.18" filterUnits="userSpaceOnUse" color-interpolation-filters="sRGB"><feFlood flood-opacity="0" result="BackgroundImageFix"/><feBlend in="SourceGraphic" in2="BackgroundImageFix" result="shape"/><feGaussianBlur stdDeviation="200" result="effect1_foregroundBlur_31_250"/></filter><filter id="c" x="-2082.13" y="-869.003" width="2806.84" height="1840.55" filterUnits="userSpaceOnUse" color-interpolation-filters="sRGB"><feFlood flood-opacity="0" result="BackgroundImageFix"/><feBlend in="SourceGraphic" in2="BackgroundImageFix" result="shape"/><feGaussianBlur stdDeviation="100" result="effect1_foregroundBlur_31_250"/></filter><filter id="d" x="-1391.12" y="-1179.57" width="3963.85" height="1985.7" filterUnits="userSpaceOnUse" color-interpolation-filters="sRGB"><feFlood flood-opacity="0" result="BackgroundImageFix"/><feBlend in="SourceGraphic" in2="BackgroundImageFix" result="shape"/><feGaussianBlur stdDeviation="100" result="effect1_foregroundBlur_31_250"/></filter><filter id="e" x="29.57" y="-1302.2" width="1853.71" height="1781.09" filterUnits="userSpaceOnUse" color-interpolation-filters="sRGB"><feFlood flood-opacity="0" result="BackgroundImageFix"/><feBlend in="SourceGraphic" in2="BackgroundImageFix" result="shape"/><feGaussianBlur stdDeviation="200" result="effect1_foregroundBlur_31_250"/></filter></defs></svg>