<svg viewBox="0 0 271 222" fill="none" xmlns="http://www.w3.org/2000/svg">
<path fill-rule="evenodd" clip-rule="evenodd" d="M17.4375 0.236816C8.13318 0.236816 0.590576 7.77942 0.590576 17.0837C0.590576 26.388 8.13318 33.9306 17.4375 33.9306V168.706C17.4375 187.314 32.5227 202.399 51.1312 202.399H94.6937L72.9125 224.181C66.3333 230.76 66.3333 241.427 72.9125 248.006C79.4916 254.585 90.1584 254.585 96.7375 248.006L135.366 209.378L173.994 248.006C180.573 254.585 191.24 254.585 197.819 248.006C204.398 241.427 204.398 230.76 197.819 224.181L176.038 202.399H219.6C238.209 202.399 253.294 187.314 253.294 168.706V33.9306C262.598 33.9306 270.141 26.388 270.141 17.0837C270.141 7.77942 262.598 0.236816 253.294 0.236816H17.4375ZM214.666 79.5369C221.245 72.9578 221.245 62.2909 214.666 55.7118C208.087 49.1327 197.42 49.1327 190.841 55.7118L135.366 111.187L113.584 89.4056C107.005 82.8265 96.3385 82.8265 89.7593 89.4056L56.0656 123.099C49.4865 129.678 49.4865 140.345 56.0656 146.924C62.6447 153.504 73.3116 153.504 79.8907 146.924L101.672 125.143L123.453 146.924C130.032 153.504 140.699 153.504 147.278 146.924L214.666 79.5369Z" fill="#111827"/>
</svg>
