<svg width="354" height="355" viewBox="0 0 354 355" fill="none" xmlns="http://www.w3.org/2000/svg">
<mask id="mask0_1305_169" style="mask-type:alpha" maskUnits="userSpaceOnUse" x="0" y="0" width="354" height="355">
<path d="M1.89246 354.5L2 191.5L0 1.99999L353.5 0.0140381V354.514L1.89246 354.5Z" fill="black"/>
</mask>
<g mask="url(#mask0_1305_169)">
<path d="M348.335 178.67C350.55 178.67 352.351 180.466 352.3 182.68C351.588 213.733 342.615 244.062 326.273 270.532C309.93 297.002 286.836 318.613 259.394 333.162C257.437 334.2 255.025 333.395 254.032 331.415L243.811 311.021C242.819 309.041 243.623 306.636 245.575 305.589C267.904 293.609 286.7 275.936 300.037 254.334C313.374 232.732 320.752 208.01 321.457 182.68C321.519 180.466 323.309 178.67 325.524 178.67H348.335Z" fill="#F55929"/>
<path d="M288.343 48.6669C289.78 46.9814 292.315 46.7769 293.967 48.2525C325.143 76.097 345.315 114.196 350.822 155.632C351.113 157.828 349.519 159.809 347.317 160.051L336.588 161.227C334.386 161.468 332.41 159.878 332.113 157.683C327.137 121.014 309.286 87.3001 281.755 62.5734C280.107 61.0933 279.902 58.5655 281.339 56.8801L288.343 48.6669Z" fill="#3761B7"/>
<path d="M8.90786 206.502C6.72242 206.863 4.65341 205.384 4.34279 203.191C-0.228887 170.912 4.31141 137.968 17.4911 108.092C31.2109 76.9915 53.6977 50.5641 82.2008 32.0426C110.704 13.5211 143.987 3.70872 177.979 3.80572C210.633 3.8989 242.581 13.1328 270.219 30.4227C272.097 31.5974 272.608 34.0888 271.391 35.9393L229.291 99.9247C228.074 101.775 225.591 102.28 223.688 101.146C209.811 92.8739 193.943 88.466 177.738 88.4198C160.194 88.3697 143.016 93.434 128.305 102.993C113.594 112.553 101.988 126.192 94.9072 142.244C88.3667 157.07 85.9486 173.36 87.8697 189.401C88.1331 191.601 86.6633 193.664 84.4778 194.025L8.90786 206.502Z" fill="#70AD46"/>
<path d="M240.286 337.562C241.101 339.622 240.092 341.956 238.014 342.723C216.346 350.718 193.295 354.347 170.192 353.383C145.753 352.364 121.8 346.228 99.8798 335.373C77.9599 324.518 58.5611 309.185 42.9369 290.365C28.1672 272.574 17.0812 252.041 10.3067 229.961C9.65702 227.843 10.9026 225.626 13.0346 225.025L62.9188 210.963C65.0508 210.362 67.2594 211.606 67.9343 213.716C72.4213 227.741 79.5641 240.787 88.986 252.136C99.2626 264.515 112.022 274.6 126.44 281.74C140.857 288.879 156.612 292.915 172.687 293.585C187.425 294.2 202.13 291.974 216.005 287.041C218.092 286.3 220.42 287.302 221.234 289.362L240.286 337.562Z" fill="#EC1F3D"/>
</g>
</svg>
