<svg viewBox="0 0 256 292" fill="none" xmlns="http://www.w3.org/2000/svg">
<path fill-rule="evenodd" clip-rule="evenodd" d="M160.366 0.857607C165.417 2.19912 169.65 5.64521 171.987 10.3201C180.798 27.9431 187.375 38.6389 193.991 47.3111C200.688 56.0891 207.772 63.2753 218.549 74.0516C243.452 98.9546 255.909 131.631 255.908 164.246C255.908 196.862 243.452 229.538 218.549 254.441C168.735 304.254 87.9723 304.254 38.1592 254.441C13.2562 229.538 0.799359 196.862 0.799316 164.246C0.799263 131.631 13.2561 98.9546 38.1592 74.0516C43.3707 68.8401 51.2083 67.2811 58.0174 70.1015C64.8266 72.922 69.2662 79.5664 69.2662 86.9365C69.2662 107.342 70.5405 122.89 76.5086 135.292C79.7904 142.111 84.9097 148.778 93.7327 154.727C95.8399 135.398 99.7 111.848 104.916 89.4947C109.022 71.8955 114.13 54.3253 120.209 39.6735C123.249 32.345 126.688 25.367 130.593 19.3421C134.394 13.4777 139.277 7.51003 145.581 3.30755C149.93 0.408327 155.314 -0.483909 160.366 0.857607ZM167.009 239.345C145.66 260.693 111.048 260.693 89.699 239.345C79.0248 228.671 73.6876 214.68 73.6876 200.69C73.6876 200.69 89.699 209.801 119.244 209.801C119.244 191.579 128.355 136.913 142.021 127.802C151.132 146.024 156.335 151.361 167.009 162.035C177.683 172.709 183.02 186.7 183.02 200.69C183.02 214.68 177.683 228.671 167.009 239.345Z" fill="#fff"/>
</svg>
