<svg viewBox="0 0 241 349" fill="none" xmlns="http://www.w3.org/2000/svg">
<path fill-rule="evenodd" clip-rule="evenodd" d="M120.173 348.419C120.173 348.419 240.272 186.446 240.272 120.117C240.272 53.7889 186.502 0.019043 120.173 0.019043C53.845 0.019043 0.0751953 53.7889 0.0751953 120.117C0.0751953 186.446 120.173 348.419 120.173 348.419ZM142.618 50.4655C141.416 48.0661 139.239 46.2973 136.64 45.6088C134.042 44.9202 131.272 45.3782 129.035 46.8662C125.792 49.0232 123.28 52.0862 121.325 55.0961C119.316 58.1885 117.548 61.77 115.984 65.5314C112.857 73.0517 110.229 82.0697 108.117 91.1028C105.434 102.576 103.449 114.663 102.365 124.584C97.8262 121.531 95.1929 118.109 93.5048 114.608C90.4348 108.243 89.7794 100.263 89.7794 89.7897C89.7794 86.0069 87.4957 82.5966 83.9931 81.149C80.4906 79.7014 76.459 80.5015 73.7782 83.1764C60.9684 95.9582 54.5607 112.729 54.5607 129.47C54.5607 146.21 60.9684 162.982 73.7782 175.763C99.4016 201.33 140.945 201.33 166.569 175.763C179.379 162.982 185.786 146.21 185.786 129.47C185.786 112.729 179.379 95.9582 166.569 83.1764C161.025 77.6453 157.381 73.957 153.937 69.4515C150.533 65.0004 147.15 59.5107 142.618 50.4655Z" fill="#111827"/>
</svg>
