<svg width="733" height="786" viewBox="0 0 733 786" fill="none" xmlns="http://www.w3.org/2000/svg">
<mask id="mask0_1307_178" style="mask-type:alpha" maskUnits="userSpaceOnUse" x="0" y="0" width="733" height="786">
<path d="M0 785.5V0H733V785.5H0Z" fill="black"/>
</mask>
<g mask="url(#mask0_1307_178)">
<path d="M699.989 525.783L640.276 397.065L731.597 259.619L697.66 0.925049L476.504 193.113C441.234 186.364 405.383 183.146 369.479 183.507H361.975C326.032 183.166 290.143 186.384 254.83 193.113L33.6137 0.925049L-0.40271 259.619L90.9381 397.065L31.2252 525.783L52.065 528.779H52.2242L44.5213 556.979L58.096 561.932C201.506 614.058 348.499 778.406 349.913 780.064L354.57 785.316H376.465L381.123 780.064C382.596 778.406 529.589 613.979 672.999 561.932L686.574 556.979L678.93 528.779H679.05L699.989 525.783ZM531.141 569.282L605.245 551.307C524.971 592.609 450.509 657.397 400.231 706.747H331.024C280.705 657.357 206.303 592.509 126.009 551.227L200.113 569.202L137.395 523.646C120.992 512.517 102.818 504.277 83.6531 499.281L185.165 280.53L103.896 351.41L40.202 255.365L52.6223 160.06L97.7254 197.447L128.696 135.754L107.279 107.954L248.859 231.04L256.402 229.342C291.046 222.153 326.362 218.738 361.736 219.157H369.698C404.988 218.874 440.211 222.294 474.792 229.362L482.316 231.04L623.955 107.954L602.578 135.754L633.549 197.487L678.652 160.06L691.172 255.325L627.378 351.37L546.149 280.53L647.522 499.241C628.357 504.237 610.182 512.477 593.78 523.606L531.141 569.282Z" fill="black"/>
<path d="M455.127 485.599C454.136 500.66 452.235 515.646 449.434 530.476L446.827 544.157L495.971 524.344L497.145 521.249C501.126 510.943 523.518 472.877 536.197 451.927L551.404 427.062L455.406 481.445L455.127 485.599Z" fill="black"/>
<path d="M276.147 485.6L275.948 481.426L179.97 427.082L195.117 452.067C207.756 472.918 230.169 510.984 234.13 521.289L235.304 524.385L284.448 544.157L281.78 530.436C279.011 515.617 277.13 500.645 276.147 485.6V485.6Z" fill="black"/>
</g>
</svg>
