<svg viewBox="0 0 245 304" fill="none" xmlns="http://www.w3.org/2000/svg">
<path fill-rule="evenodd" clip-rule="evenodd" d="M117.148 35.9496C79.5932 28.7153 43.284 53.2952 36.0496 90.8505C28.8153 128.406 53.3953 164.715 90.9506 171.949C128.506 179.184 164.815 154.604 172.049 117.048C179.284 79.4931 154.704 43.1839 117.148 35.9496ZM2.04972 84.3011C12.9012 27.9681 67.365 -8.90184 123.698 1.94967C180.031 12.8012 216.901 67.2649 206.049 123.598C201.806 145.627 190.893 164.68 175.807 179.066L241.913 276.717C247.273 284.634 245.2 295.398 237.282 300.758C229.364 306.118 218.6 304.045 213.24 296.127L147.135 198.477C128.173 207.139 106.43 210.193 84.4011 205.949C28.0682 195.098 -8.80179 140.634 2.04972 84.3011Z" fill="#fff"/>
</svg>
