<svg width="268" height="260" viewBox="0 0 268 260" fill="none" xmlns="http://www.w3.org/2000/svg">
<path opacity="0.2" fill-rule="evenodd" clip-rule="evenodd" d="M16.0515 31.2506C0.92081 39.9864 -4.26335 59.334 4.47237 74.4647L48.19 150.186C55.2171 128.776 69.8501 109.776 90.9004 97.623C136.293 71.4158 194.335 86.9683 220.542 132.36C232.696 153.411 235.868 177.182 231.249 199.236L252.177 187.154C267.308 178.418 272.492 159.07 263.756 143.94L195.854 26.329C191.659 19.063 184.749 13.761 176.645 11.5895L102.874 -8.17736C94.7699 -10.3489 86.135 -9.21207 78.869 -5.01702L16.0515 31.2506ZM77.1504 160.16C68.1065 193.912 88.1366 228.605 121.889 237.649C133.216 240.684 144.663 240.439 155.2 237.504L169.304 261.933C173.672 269.499 183.346 272.091 190.911 267.723C198.477 263.355 201.069 253.681 196.701 246.116L182.596 221.686C190.407 214.028 196.343 204.238 199.378 192.911C208.422 159.159 188.392 124.466 154.64 115.422C120.887 106.378 86.1943 126.408 77.1504 160.16ZM171.537 176.353C171.537 194.651 156.704 209.485 138.406 209.485C120.108 209.485 105.274 194.651 105.274 176.353C105.274 158.055 120.108 143.222 138.406 143.222C156.704 143.222 171.537 158.055 171.537 176.353Z" fill="white"/>
</svg>
