<svg viewBox="0 0 1920 256" xmlns="http://www.w3.org/2000/svg">
<path d="M1915 207L1920 206.5V255.5H1880.5H1006.5H0V238.5V20.5V0.5L1 15L2.5 27.5L4 37L6.5 49.5L9.5 60.5L15.5 77.5L21.5 92L28.5 105.5L32.5 112L36 118L42 127L46 132.5L50 137.5L55 143.5L66 155.5L82 170.5L94.5 180.5L102 185.5L121.5 197L141 206.5L157.5 212.5L168 215.5L181 218.5L192.5 220.5L201 222L212.5 223L356 233L591.5 246L720 251L851 253L1006.5 255.5L1251 250.5L1265.5 250L1279.5 249.5L1305.5 248.5L1326.5 247.5L1364 246L1397.5 244.5L1424 243L1454 241.5L1506.5 238.5L1547 236L1576.5 234L1604.5 232L1626 230.5L1654 228.5L1682.5 226.5L1700 225L1732 222.5L1750.5 221L1770.5 219.5L1788 218L1801 217L1812 216L1818.5 215.5L1824 215L1830 214.5L1835 214L1848 213L1865 211.5L1880.5 210L1892.5 209L1903.5 208L1915 207Z" fill="white"/>
</svg>
