<svg viewBox="0 0 286 286" fill="none" xmlns="http://www.w3.org/2000/svg">
<path fill-rule="evenodd" clip-rule="evenodd" d="M37.2329 125.125H72.0117C73.6063 97.4832 78.8695 72.0197 86.9876 51.5208C61.0881 67.4128 42.4555 93.9953 37.2329 125.125ZM143 0C64.0233 0 0 64.0233 0 143C0 221.977 64.0233 286 143 286C221.977 286 286 221.977 286 143C286 64.0233 221.977 0 143 0ZM143 35.75C141.641 35.75 138.851 36.3171 134.683 40.4304C130.438 44.6196 125.796 51.5677 121.511 61.5646C114.563 77.776 109.483 99.8423 107.829 125.125H178.171C176.517 99.8423 171.437 77.776 164.489 61.5646C160.204 51.5677 155.562 44.6196 151.317 40.4304C147.149 36.3171 144.359 35.75 143 35.75ZM213.988 125.125C212.394 97.4832 207.131 72.0197 199.012 51.5208C224.912 67.4128 243.545 93.9953 248.767 125.125H213.988ZM178.171 160.875H107.829C109.483 186.158 114.563 208.224 121.511 224.435C125.796 234.432 130.438 241.38 134.683 245.57C138.851 249.683 141.641 250.25 143 250.25C144.359 250.25 147.149 249.683 151.317 245.57C155.562 241.38 160.204 234.432 164.489 224.435C171.437 208.224 176.517 186.158 178.171 160.875ZM199.012 234.479C207.131 213.98 212.394 188.517 213.988 160.875H248.767C243.545 192.005 224.912 218.587 199.012 234.479ZM86.9876 234.479C78.8695 213.98 73.6063 188.517 72.0117 160.875H37.2329C42.4555 192.005 61.0881 218.587 86.9876 234.479Z" fill="#111827"/>
</svg>
