<svg viewBox="0 0 268 280" fill="none" xmlns="http://www.w3.org/2000/svg">
<path fill-rule="evenodd" clip-rule="evenodd" d="M16.0515 41.2506C0.92081 49.9864 -4.26335 69.334 4.47237 84.4647L48.19 160.186C55.217 138.776 69.8501 119.776 90.9004 107.623C136.293 81.4158 194.335 96.9683 220.542 142.36C232.696 163.411 235.868 187.182 231.249 209.236L252.177 197.154C267.308 188.418 272.492 169.07 263.756 153.94L195.854 36.329C191.659 29.063 184.749 23.761 176.645 21.5895L102.874 1.82265C94.7699 -0.348873 86.135 0.787927 78.869 4.98298L16.0515 41.2506ZM77.1504 170.16C68.1065 203.912 88.1366 238.605 121.889 247.649C133.216 250.684 144.663 250.439 155.2 247.504L169.304 271.933C173.672 279.499 183.346 282.091 190.911 277.723C198.477 273.355 201.069 263.681 196.701 256.116L182.596 231.686C190.407 224.028 196.343 214.238 199.378 202.911C208.422 169.159 188.392 134.466 154.64 125.422C120.887 116.378 86.1943 136.408 77.1504 170.16ZM171.537 186.353C171.537 204.651 156.704 219.485 138.406 219.485C120.108 219.485 105.274 204.651 105.274 186.353C105.274 168.055 120.108 153.222 138.406 153.222C156.704 153.222 171.537 168.055 171.537 186.353Z" fill="#fff"/>
</svg>
