<svg viewBox="0 0 271 222" fill="none" xmlns="http://www.w3.org/2000/svg"><path fill-rule="evenodd" clip-rule="evenodd" d="M17.438.237C8.133.237.59 7.779.59 17.084c0 9.304 7.542 16.847 16.846 16.847v134.775c0 18.608 15.086 33.693 33.694 33.693h43.563l-21.782 21.782c-6.579 6.579-6.579 17.246 0 23.825 6.58 6.579 17.246 6.579 23.825 0l38.629-38.628 38.628 38.628c6.579 6.579 17.246 6.579 23.825 0 6.579-6.579 6.579-17.246 0-23.825l-21.781-21.782H219.6c18.609 0 33.694-15.085 33.694-33.693V33.931c9.304 0 16.847-7.543 16.847-16.847 0-9.305-7.543-16.847-16.847-16.847H17.437Zm197.228 79.3c6.579-6.58 6.579-17.246 0-23.825-6.579-6.58-17.246-6.58-23.825 0l-55.475 55.475-21.782-21.781c-6.579-6.58-17.246-6.58-23.825 0l-33.693 33.693c-6.58 6.579-6.58 17.246 0 23.825 6.579 6.58 17.246 6.58 23.825 0l21.781-21.781 21.781 21.781c6.579 6.58 17.246 6.58 23.825 0l67.388-67.387Z" fill="#111827"/></svg>