<svg width="354" height="355" fill="none" xmlns="http://www.w3.org/2000/svg"><mask id="a" style="mask-type:alpha" maskUnits="userSpaceOnUse" x="0" y="0" width="354" height="355"><path d="M1.892 354.5 2 191.5 0 2 353.5.014v354.5L1.892 354.5Z" fill="#000"/></mask><g mask="url(#a)"><path d="M348.335 178.67c2.215 0 4.016 1.796 3.965 4.01a174.865 174.865 0 0 1-92.906 150.482c-1.957 1.038-4.369.233-5.362-1.747l-10.221-20.394c-.992-1.98-.188-4.385 1.764-5.432a144.038 144.038 0 0 0 75.882-122.909c.062-2.214 1.852-4.01 4.067-4.01h22.811Z" fill="#F55929"/><path d="M288.343 48.667c1.437-1.686 3.972-1.89 5.624-.415a174.87 174.87 0 0 1 56.855 107.38c.291 2.196-1.303 4.177-3.505 4.419l-10.729 1.176c-2.202.241-4.178-1.349-4.475-3.544a156.053 156.053 0 0 0-50.358-95.11c-1.648-1.48-1.853-4.008-.416-5.693l7.004-8.213Z" fill="#3761B7"/><path d="M8.908 206.502c-2.186.361-4.255-1.118-4.565-3.311A174.865 174.865 0 0 1 270.219 30.423c1.878 1.174 2.389 3.666 1.172 5.516l-42.1 63.986c-1.217 1.85-3.7 2.355-5.603 1.221a90.245 90.245 0 0 0-95.383 1.847 90.252 90.252 0 0 0-40.435 86.408c.263 2.2-1.207 4.263-3.392 4.624l-75.57 12.477Z" fill="#70AD46"/><path d="M240.286 337.562c.815 2.06-.194 4.394-2.272 5.161A174.866 174.866 0 0 1 10.307 229.961c-.65-2.118.596-4.335 2.728-4.936l49.884-14.062c2.132-.601 4.34.643 5.015 2.753a115.016 115.016 0 0 0 148.071 73.325c2.087-.741 4.415.261 5.229 2.321l19.052 48.2Z" fill="#EC1F3D"/></g></svg>