<svg width="733" height="786" fill="none" xmlns="http://www.w3.org/2000/svg"><mask id="a" style="mask-type:alpha" maskUnits="userSpaceOnUse" x="0" y="0" width="733" height="786"><path d="M0 785.5V0h733v785.5H0Z" fill="#000"/></mask><g mask="url(#a)" fill="#000"><path d="m699.989 525.783-59.713-128.718 91.321-137.446L697.66.925 476.504 193.113a540.532 540.532 0 0 0-107.025-9.606h-7.504a544.785 544.785 0 0 0-107.145 9.606L33.614.925-.403 259.619l91.341 137.446-59.713 128.718 20.84 2.996h.16l-7.704 28.2 13.575 4.953c143.41 52.126 290.403 216.474 291.817 218.132l4.657 5.252h21.895l4.658-5.252c1.473-1.658 148.466-166.085 291.876-218.132l13.575-4.953-7.644-28.2h.12l20.939-2.996Zm-168.848 43.499 74.104-17.975c-80.274 41.302-154.736 106.09-205.014 155.44h-69.207c-50.319-49.39-124.721-114.238-205.015-155.52l74.104 17.975-62.718-45.556a173.813 173.813 0 0 0-53.742-24.365L185.165 280.53l-81.269 70.88-63.694-96.045 12.42-95.305 45.103 37.387 30.971-61.693-21.417-27.8 141.58 123.086 7.543-1.698a489.857 489.857 0 0 1 105.334-10.185h7.962a504.6 504.6 0 0 1 105.094 10.205l7.524 1.678 141.639-123.086-21.377 27.8 30.971 61.733 45.103-37.427 12.52 95.265-63.794 96.045-81.229-70.84 101.373 218.711a173.802 173.802 0 0 0-53.742 24.365l-62.639 45.676Z"/><path d="M455.127 485.599a374.171 374.171 0 0 1-5.693 44.877l-2.607 13.681 49.144-19.813 1.174-3.095c3.981-10.306 26.373-48.372 39.052-69.322l15.207-24.865-95.998 54.383-.279 4.154Zm-178.98.001-.199-4.174-95.978-54.344 15.147 24.985c12.639 20.851 35.052 58.917 39.013 69.222l1.174 3.096 49.144 19.772-2.668-13.721a378.435 378.435 0 0 1-5.633-44.836Z"/></g></svg>