<svg viewBox="0 0 245 304" fill="none" xmlns="http://www.w3.org/2000/svg"><path fill-rule="evenodd" clip-rule="evenodd" d="M117.148 35.95c-37.555-7.235-73.864 17.345-81.098 54.9-7.235 37.556 17.345 73.865 54.9 81.099 37.556 7.235 73.865-17.345 81.099-54.901 7.235-37.555-17.345-73.864-54.901-81.098ZM2.05 84.3C12.9 27.968 67.365-8.902 123.698 1.95c56.333 10.851 93.203 65.315 82.351 121.648-4.243 22.029-15.156 41.082-30.242 55.468l66.106 97.651c5.36 7.917 3.287 18.681-4.631 24.041-7.918 5.36-18.682 3.287-24.042-4.631l-66.105-97.65c-18.962 8.662-40.705 11.716-62.734 7.472C28.068 195.098-8.802 140.634 2.05 84.301Z" fill="#fff"/></svg>