<svg width="268" height="260" fill="none" xmlns="http://www.w3.org/2000/svg"><path opacity=".2" fill-rule="evenodd" clip-rule="evenodd" d="M16.052 31.25C.92 39.987-4.264 59.335 4.472 74.466l43.718 75.721c7.027-21.41 21.66-40.41 42.71-52.563 45.393-26.207 103.435-10.655 129.642 34.737 12.154 21.051 15.326 44.822 10.707 66.876l20.928-12.082c15.131-8.736 20.315-28.084 11.579-43.214L195.854 26.329a31.636 31.636 0 0 0-19.209-14.74L102.874-8.176a31.634 31.634 0 0 0-24.005 3.16L16.052 31.251ZM77.15 160.16c-9.044 33.752 10.987 68.445 44.739 77.489 11.327 3.035 22.774 2.79 33.311-.145l14.104 24.429c4.368 7.566 14.042 10.158 21.607 5.79 7.566-4.368 10.158-14.042 5.79-21.607l-14.105-24.43a63.017 63.017 0 0 0 16.782-28.775c9.044-33.752-10.986-68.445-44.738-77.489-33.753-9.044-68.446 10.986-77.49 44.738Zm94.387 16.193c0 18.298-14.833 33.132-33.131 33.132-18.298 0-33.132-14.834-33.132-33.132s14.834-33.131 33.132-33.131 33.131 14.833 33.131 33.131Z" fill="#fff"/></svg>