<svg width="1920" height="1000" fill="none" xmlns="http://www.w3.org/2000/svg"><g filter="url(#a)"><ellipse rx="1018.01" ry="551.046" transform="rotate(-2.353 22950.537 -17548.094) skewX(-.105)" fill="#FF4D00" fill-opacity=".75"/></g><g filter="url(#b)"><path d="M421.479 1008.46c-247.451 57.71-330.515 234.13-285.666 435.44 93.582 420.06 2311.177 60 2563.907-367.46 185.74-314.136 73.81-669.383-211.11-738.347-321.99-77.935-492.43-6.123-751.32 175.22-216.01 151.309-273.19 259.72-516.02 401.47-227.284 132.677-579.99 42.416-799.791 93.677Z" fill="red" fill-opacity=".8"/></g><g opacity=".7" filter="url(#c)"><path d="M1299.26 719.601C437.269 872.271-7.945 112.515-298.964 204.967-664.794 321.185-423.866 1075.03-55.512 1297.75 378.676 1560.29 1883.42 616.139 1299.26 719.601Z" fill="#FF7A00"/></g><g filter="url(#d)"><path d="M1896.3 1303.67C857.589 1514.38 297.065 608.679-52.444 729.305-491.8 880.94-178.648 1785.65 273.477 2043.98c532.932 304.51 2326.743-883.1 1622.823-740.31Z" fill="#FFA800"/></g><g filter="url(#e)"><path d="M1507.38 2065.13c-272.17 181.05-306.08 414.12-179.29 613.65 264.57 416.35 2761.09-1033.77 2904.27-1623 105.22-433.027-157.38-769.528-520.29-709.632-410.12 67.688-585.85 227.57-826.35 549.702-200.66 268.78-228.77 414.93-464.71 685.98-220.85 253.7-671.88 322.48-913.63 483.3Z" fill="#FFA18A"/></g><defs><filter id="a" x="-677.622" y="-24.817" width="2834.78" height="1904.46" filterUnits="userSpaceOnUse" color-interpolation-filters="sRGB"><feFlood flood-opacity="0" result="BackgroundImageFix"/><feBlend in="SourceGraphic" in2="BackgroundImageFix" result="shape"/><feGaussianBlur stdDeviation="200" result="effect1_foregroundBlur_1303_171"/></filter><filter id="b" x="-75.791" y="106.924" width="3066.65" height="1723.99" filterUnits="userSpaceOnUse" color-interpolation-filters="sRGB"><feFlood flood-opacity="0" result="BackgroundImageFix"/><feBlend in="SourceGraphic" in2="BackgroundImageFix" result="shape"/><feGaussianBlur stdDeviation="100" result="effect1_foregroundBlur_1303_171"/></filter><filter id="c" x="-680.653" y="-2.864" width="2312.83" height="1546.92" filterUnits="userSpaceOnUse" color-interpolation-filters="sRGB"><feFlood flood-opacity="0" result="BackgroundImageFix"/><feBlend in="SourceGraphic" in2="BackgroundImageFix" result="shape"/><feGaussianBlur stdDeviation="100" result="effect1_foregroundBlur_1303_171"/></filter><filter id="d" x="-463.734" y="518.192" width="2721.49" height="1775.94" filterUnits="userSpaceOnUse" color-interpolation-filters="sRGB"><feFlood flood-opacity="0" result="BackgroundImageFix"/><feBlend in="SourceGraphic" in2="BackgroundImageFix" result="shape"/><feGaussianBlur stdDeviation="100" result="effect1_foregroundBlur_1303_171"/></filter><filter id="e" x="1057.25" y="139.225" width="3398.53" height="2813.55" filterUnits="userSpaceOnUse" color-interpolation-filters="sRGB"><feFlood flood-opacity="0" result="BackgroundImageFix"/><feBlend in="SourceGraphic" in2="BackgroundImageFix" result="shape"/><feGaussianBlur stdDeviation="100" result="effect1_foregroundBlur_1303_171"/></filter></defs></svg>