<svg viewBox="0 0 286 286" fill="none" xmlns="http://www.w3.org/2000/svg"><path fill-rule="evenodd" clip-rule="evenodd" d="M37.233 125.125h34.779c1.594-27.642 6.858-53.105 14.976-73.604-25.9 15.892-44.532 42.474-49.755 73.604ZM143 0C64.023 0 0 64.023 0 143s64.023 143 143 143 143-64.023 143-143S221.977 0 143 0Zm0 35.75c-1.359 0-4.149.567-8.317 4.68-4.245 4.19-8.887 11.138-13.172 21.135-6.948 16.211-12.028 38.277-13.682 63.56h70.342c-1.654-25.283-6.734-47.349-13.682-63.56-4.285-9.997-8.927-16.945-13.172-21.135-4.168-4.113-6.958-4.68-8.317-4.68Zm70.988 89.375c-1.594-27.642-6.857-53.105-14.976-73.604 25.9 15.892 44.533 42.474 49.755 73.604h-34.779Zm-35.817 35.75h-70.342c1.654 25.283 6.734 47.349 13.682 63.56 4.285 9.997 8.927 16.945 13.172 21.135 4.168 4.113 6.958 4.68 8.317 4.68s4.149-.567 8.317-4.68c4.245-4.19 8.887-11.138 13.172-21.135 6.948-16.211 12.028-38.277 13.682-63.56Zm20.841 73.604c8.119-20.499 13.382-45.962 14.976-73.604h34.779c-5.222 31.13-23.855 57.712-49.755 73.604Zm-112.024 0c-8.118-20.499-13.382-45.962-14.976-73.604h-34.78c5.224 31.13 23.856 57.712 49.756 73.604Z" fill="#111827"/></svg>