<svg width="1920" height="107" fill="none" xmlns="http://www.w3.org/2000/svg"><mask id="a" style="mask-type:alpha" maskUnits="userSpaceOnUse" x="0" y="0" width="1920" height="107"><path d="M19.5 103.5 0 107V0h1920v107l-65.5-11.5L1763 80l-49.5-8-63-9.5-73-10.5-64-8.5-47-5.5-59.5-7-67.5-6.5-24-2.5-63.5-5-19.5-1.5-49-3-63-3-55-2-37.5-1-51-.5h-41l-69 1-61.5 2-55 2.5-63.5 4-47.5 3.5-58 5-46.5 4.5-28.5 3-51.5 6-38 4.5-31.5 4-32.5 4.5-29 4-18 2.5-24 3.5-30.5 4.5-26 4-28.5 4.5-18.5 3-37 6-42 7-28.5 5-29 5-22.5 4Z" fill="#000"/></mask><g mask="url(#a)"><path fill="#fff" d="M0-3h1920v110H0z"/></g></svg>