<svg width="1920" height="1142" fill="none" xmlns="http://www.w3.org/2000/svg"><g filter="url(#a)"><path d="M1530.68 930.318C467.91 1141.02-105.594 235.324-463.197 355.95c-449.53 151.635-129.127 1056.34 333.468 1314.68C415.544 1975.14 2250.9 787.527 1530.68 930.318Z" fill="#1D40D9"/></g><g filter="url(#b)"><ellipse cx="1015.45" cy="1371.33" rx="1260.73" ry="579.052" transform="rotate(-11.426 1015.45 1371.33)" fill="#0025CE"/></g><g filter="url(#c)"><path d="M730.058 1431.12c-278.466 181.05-313.165 414.12-183.438 613.65 270.693 416.35 2825.03-1033.78 2971.52-1623.002 107.66-433.028-161.02-769.529-532.33-709.633-419.62 67.688-599.42 227.57-845.49 549.702-205.31 268.78-234.07 414.926-475.48 685.979-225.95 253.704-687.433 322.484-934.782 483.304Z" fill="#1C3CC9"/></g><defs><filter id="a" x="-879.381" y="144.837" width="2775.25" height="1775.94" filterUnits="userSpaceOnUse" color-interpolation-filters="sRGB"><feFlood flood-opacity="0" result="BackgroundImageFix"/><feBlend in="SourceGraphic" in2="BackgroundImageFix" result="shape"/><feGaussianBlur stdDeviation="100" result="effect1_foregroundBlur_88_528"/></filter><filter id="b" x="-625.684" y="351.076" width="3282.27" height="2040.5" filterUnits="userSpaceOnUse" color-interpolation-filters="sRGB"><feFlood flood-opacity="0" result="BackgroundImageFix"/><feBlend in="SourceGraphic" in2="BackgroundImageFix" result="shape"/><feGaussianBlur stdDeviation="200" result="effect1_foregroundBlur_88_528"/></filter><filter id="c" x="274.141" y="-494.788" width="3467.97" height="2813.55" filterUnits="userSpaceOnUse" color-interpolation-filters="sRGB"><feFlood flood-opacity="0" result="BackgroundImageFix"/><feBlend in="SourceGraphic" in2="BackgroundImageFix" result="shape"/><feGaussianBlur stdDeviation="100" result="effect1_foregroundBlur_88_528"/></filter></defs></svg>