<svg width="1920" height="1260" fill="none" xmlns="http://www.w3.org/2000/svg"><g filter="url(#a)"><path d="M762.095 202.368C1551.47 601.404 1464.72 1472.25 1755.34 1574.54c365.33 128.59 614.33-614.319 446.8-1013.103C2004.66 91.379 227.151-68.053 762.095 202.368Z" fill="#1F3FCC"/></g><g filter="url(#b)"><ellipse cx="1112.66" cy="199.734" rx="1029.22" ry="472.72" transform="rotate(-162.555 1112.66 199.734)" fill="#0025CE"/></g><g filter="url(#c)"><path d="M1634.7 571.471c270.13 23.636 409.66-108.784 426.6-302.336 35.34-403.872-2336.534-756.114-2727.089-450.904-287.023 224.303-283.494 575.823-14.605 724.06 303.87 167.523 499.906 155.149 820.151 71.765 267.206-69.573 359.205-149.084 650.767-201.962 272.906-49.493 604.246 138.382 844.176 159.377Z" fill="#1C3CC9"/></g><defs><filter id="a" x="462.157" y="-129.201" width="1993.27" height="1918.5" filterUnits="userSpaceOnUse" color-interpolation-filters="sRGB"><feFlood flood-opacity="0" result="BackgroundImageFix"/><feBlend in="SourceGraphic" in2="BackgroundImageFix" result="shape"/><feGaussianBlur stdDeviation="100" result="effect1_foregroundBlur_119_1101"/></filter><filter id="b" x="-279.524" y="-746.742" width="2784.37" height="1892.95" filterUnits="userSpaceOnUse" color-interpolation-filters="sRGB"><feFlood flood-opacity="0" result="BackgroundImageFix"/><feBlend in="SourceGraphic" in2="BackgroundImageFix" result="shape"/><feGaussianBlur stdDeviation="200" result="effect1_foregroundBlur_119_1101"/></filter><filter id="c" x="-1081.58" y="-497.177" width="3343.27" height="1370.78" filterUnits="userSpaceOnUse" color-interpolation-filters="sRGB"><feFlood flood-opacity="0" result="BackgroundImageFix"/><feBlend in="SourceGraphic" in2="BackgroundImageFix" result="shape"/><feGaussianBlur stdDeviation="100" result="effect1_foregroundBlur_119_1101"/></filter></defs></svg>